<?xml version="1.0" standalone="no"?>
<!DOCTYPE svg PUBLIC "-//W3C//DTD SVG 20010904//EN"
 "http://www.w3.org/TR/2001/REC-SVG-20010904/DTD/svg10.dtd">
<svg version="1.0" xmlns="http://www.w3.org/2000/svg"
 width="62.000000pt" height="85.000000pt" viewBox="0 0 62.000000 85.000000"
 preserveAspectRatio="xMidYMid meet">
<metadata>
Created by potrace 1.11, written by Peter Selinger 2001-2013
</metadata>
<g transform="translate(0.000000,85.000000) scale(0.100000,-0.100000)"
fill="#000000" stroke="none">
<path d="M470 616 c-91 -65 -250 -152 -250 -137 0 6 12 40 26 77 l27 66 -21
20 -20 21 -31 -99 c-17 -54 -31 -103 -31 -109 0 -6 -26 -23 -57 -39 l-57 -28
40 -22 c21 -12 38 -29 38 -37 -1 -8 -11 -61 -23 -118 -12 -57 -20 -105 -18
-107 2 -2 16 41 32 95 15 55 32 106 36 113 8 12 62 -22 269 -169 80 -57 66
-42 -75 78 -129 110 -170 141 -179 132 -3 -3 1 15 10 42 15 41 23 50 63 67 25
11 106 49 179 84 125 62 132 67 132 95 0 16 -3 29 -7 28 -5 0 -42 -24 -83 -53z"/>
</g>
</svg>
